<svg width="67" height="67" viewBox="0 0 67 67" fill="none" xmlns="http://www.w3.org/2000/svg">
<rect width="66.9867" height="66.9867" rx="33.4933" fill="#D3D3D3"/>
<path fill-rule="evenodd" clip-rule="evenodd" d="M30.1824 43.5007C29.8135 43.5399 29.4389 43.56 29.0596 43.56C23.2606 43.56 18.5596 38.859 18.5596 33.06C18.5596 27.261 23.2606 22.56 29.0596 22.56C29.4389 22.56 29.8135 22.5801 30.1824 22.6193C26.794 24.8553 24.5582 28.6966 24.5582 33.06C24.5582 37.4234 26.794 41.2647 30.1824 43.5007ZM33.0589 42.7715C29.2436 41.1986 26.5582 37.4429 26.5582 33.06C26.5582 28.6771 29.2436 24.9214 33.0589 23.3485C36.8741 24.9214 39.5596 28.6771 39.5596 33.06C39.5596 37.4429 36.8741 41.1986 33.0589 42.7715ZM33.0589 44.9065C31.8032 45.3303 30.4582 45.56 29.0596 45.56C22.156 45.56 16.5596 39.9636 16.5596 33.06C16.5596 26.1564 22.156 20.56 29.0596 20.56C30.4582 20.56 31.8032 20.7897 33.0589 21.2135C34.3146 20.7897 35.6596 20.56 37.0582 20.56C43.9618 20.56 49.5582 26.1564 49.5582 33.06C49.5582 39.9636 43.9618 45.56 37.0582 45.56C35.6596 45.56 34.3146 45.3303 33.0589 44.9065ZM35.9354 22.6193C36.3043 22.5801 36.6789 22.56 37.0582 22.56C42.8572 22.56 47.5582 27.261 47.5582 33.06C47.5582 38.859 42.8572 43.56 37.0582 43.56C36.6789 43.56 36.3043 43.5399 35.9354 43.5007C39.3238 41.2647 41.5596 37.4234 41.5596 33.06C41.5596 28.6966 39.3238 24.8553 35.9354 22.6193Z" fill="black"/>
</svg>
