<svg width="209" height="50" viewBox="0 0 209 50" fill="none" xmlns="http://www.w3.org/2000/svg">
<mask id="mask0_2243_76" style="mask-type:luminance" maskUnits="userSpaceOnUse" x="0" y="0" width="209" height="50">
<path d="M208.725 0H0V50H208.725V0Z" fill="white"/>
</mask>
<g mask="url(#mask0_2243_76)">
<path d="M116.215 36.291V45.9626C110.671 48.6533 105.402 49.9987 100.122 49.9987C85.5587 49.9987 76.8245 41.672 76.8245 31.1951C76.8245 19.913 86.8122 10.5164 99.572 10.5164C102.752 10.5164 105.116 11.0565 107.613 11.8616C109.417 12.4018 110.528 13.0744 111.639 13.0744C112.607 13.0744 112.882 11.4642 113.025 10.5164H114.411L115.665 23.5412H114.003C113.31 20.9933 112.057 18.8429 110.396 17.3651C107.756 14.8172 104.158 13.4719 99.9899 13.4719C91.2557 13.4719 86.1191 20.1882 86.1191 30.2574C86.1191 40.3268 92.3564 47.0431 100.683 47.0431C103.18 47.0431 105.402 46.5028 108.174 45.3003V35.3635C108.174 32.1428 107.623 30.9301 102.905 30.9301V29.4524H120.516V30.9301C116.072 30.9301 116.215 32.2753 116.215 36.3012V36.291ZM67.8151 20.443V49.3158H65.4607L35.64 19.5053C35.7725 20.3105 35.7725 20.9831 35.7725 21.7883V39.9191C35.7725 45.5551 35.7725 47.5731 41.0417 47.5731V49.0508H27.0384V47.5731C32.3073 47.5731 32.3073 45.1576 32.3073 39.9191V19.2404C32.3073 16.1523 32.3073 12.7993 26.7632 12.7993V11.3215H39.9409L64.4824 35.761C64.3499 35.0883 64.3499 34.6806 64.3499 33.7431V20.4531C64.3499 15.0822 64.4824 12.7993 59.2132 12.7993V11.3215H73.2268V12.7993C68.0901 12.7993 67.8151 14.9497 67.8151 20.4531V20.443ZM0 49.0508V47.5731C3.32246 47.5731 5.68692 47.3081 5.68692 42.5995V17.7524C5.68692 12.9216 3.88301 12.7891 0 12.7891V11.3113H19.6902V12.7891C15.6645 12.7891 14.0033 12.9216 14.0033 17.7524V42.5995C14.0033 47.2978 16.0824 47.5731 19.6902 47.5731V49.0508H0Z" fill="#040404"/>
<path d="M208.585 33.8709C208.718 33.0964 208.718 32.3116 208.718 31.7918C208.452 31.537 208.055 31.4045 207.79 31.4045C207.79 31.0172 207.658 30.4976 207.79 29.9778C208.055 29.9778 208.585 30.1103 208.585 29.9778C208.585 29.2032 208.452 28.4184 208.32 28.0311C208.045 27.8986 207.658 27.7661 207.25 27.6438C207.25 27.2566 207.118 26.8693 206.985 26.6043C207.383 26.4718 207.648 26.4718 207.912 26.4718C207.912 26.4718 207.648 25.2999 207.515 24.7801C207.25 24.6476 206.853 24.6476 206.588 24.6476C206.455 24.3928 206.323 24.1278 206.19 23.7405C206.455 23.608 206.73 23.608 206.985 23.4857C206.72 22.8334 206.588 22.5786 206.323 22.1913H205.395C205.263 21.9366 205.13 21.6716 205.13 21.4168C205.263 21.2843 205.528 21.1518 205.66 21.0193C205.528 20.632 205.263 20.2448 204.998 19.9798C204.733 19.9798 204.468 20.1021 204.203 19.9798C204.07 19.9798 203.673 19.46 203.805 19.46C203.938 19.195 204.203 19.0727 204.335 18.9402C203.938 18.4204 203.805 18.0332 203.408 17.7682C203.143 17.7682 202.878 17.7682 202.613 17.9007C202.613 17.9007 202.348 17.5134 202.215 17.3809C201.818 17.3809 202.48 16.7287 202.48 16.7287C202.083 16.2089 201.685 15.8216 201.155 15.3018C200.88 15.3018 200.615 15.5566 200.493 15.5566C200.493 15.5566 199.963 15.1693 199.963 15.0368C199.963 14.782 200.493 14.6495 200.493 14.6495C200.493 14.6495 199.565 13.61 198.903 13.2227C198.638 13.3552 198.506 13.3552 198.241 13.3552C197.843 12.9679 197.313 12.7131 197.313 12.7131C197.313 12.7131 197.711 12.4482 197.711 12.3259C197.048 11.9386 196.783 11.6838 196.243 11.2863C195.713 11.0315 195.448 10.6341 195.183 10.2468C194.256 8.81996 193.063 6.74087 190.138 6.35358C190.138 6.35358 190.801 7.26064 191.208 7.91289C191.208 7.99444 191.032 8.03521 190.678 8.03521H189.751C189.486 7.64791 189.354 7.51543 189.211 7.26064C188.946 6.74087 188.824 6.60837 188.548 6.35358C188.018 5.96631 185.358 7.39312 183.096 7.91289C183.636 8.55498 184.156 8.95244 184.288 9.20723C184.951 9.8595 185.878 11.0213 186.541 11.9284C186.673 11.7959 186.806 11.6736 187.081 11.5411C188.813 11.2863 188.813 10.899 188.813 10.899C188.813 10.899 187.478 9.8595 188.406 9.8595C188.406 9.8595 189.068 9.98179 189.343 9.727C190.006 9.59452 190.801 9.46202 191.208 9.727C191.738 10.1143 192.003 10.6341 192.401 11.0213C192.136 11.0213 191.871 10.899 191.606 10.899C190.811 10.7665 190.006 10.899 189.343 11.0213C189.343 11.0213 190.413 11.9284 190.668 12.3157C190.403 12.1832 189.608 12.3157 189.608 12.3157C189.211 12.4482 188.681 12.5705 188.548 12.5705C188.151 12.703 187.753 12.5705 187.488 12.703C188.018 12.9578 190.413 13.875 191.606 13.875C192.666 13.875 193.328 13.7425 194.266 13.3552C194.398 13.2227 194.663 13.1004 194.796 13.2227C195.326 13.3552 195.591 13.4877 195.856 13.7425C199.311 15.8216 203.163 20.7543 204.355 23.343C205.548 25.8095 206.21 28.5407 206.21 31.1295C206.343 34.6353 205.15 38.0087 202.755 40.9949C201.42 42.6766 198.903 44.1032 196.243 44.3682C197.038 45.2753 197.435 46.7022 197.833 48.0068C197.833 48.0068 198.76 47.8743 199.3 47.6195C199.3 46.5799 198.638 45.418 198.638 45.153C198.638 45.153 199.433 44.6332 200.095 44.6332C200.228 45.0205 200.625 45.6728 201.155 46.5799C201.685 46.3149 202.083 46.0601 202.48 45.6728C202.48 45.0205 202.083 44.246 201.818 43.4714C202.745 43.0841 203.285 42.9516 203.285 42.9516C203.55 43.3389 204.213 43.7262 204.345 44.1237C204.345 44.1237 205.008 43.4714 205.273 42.8293C205.008 42.3095 204.61 41.9224 204.345 41.4026L205.405 40.2407C205.405 40.2407 206.068 40.7605 206.333 41.0153C206.73 40.4955 207.128 39.9757 207.26 39.3234C206.598 38.6814 206.333 38.6814 206.2 38.2839C206.465 37.8966 206.598 37.3768 206.863 36.9895C207.26 37.122 207.525 37.3768 207.8 37.5093C208.065 36.9895 208.331 36.2149 208.331 35.6953C208.055 35.4303 207.668 35.308 207.403 35.043C207.535 34.3907 207.668 33.7486 207.668 33.7486C207.668 33.7486 208.331 33.8811 208.595 33.8811L208.585 33.8709ZM187.855 8.43266L187.06 8.95244L186 8.17787L187.193 7.52562L188.518 8.43266H187.855ZM192.635 9.59452L192.105 8.94225L193.563 8.55498L194.225 10.7564L192.635 9.58433V9.59452ZM164.466 6.2211C164.466 6.60837 164.598 7.00585 164.731 7.38293C165.393 7.77023 166.188 8.03521 166.188 8.03521C166.32 7.64791 166.055 7.26064 166.055 6.86316C165.79 5.95612 165.393 5.04906 165.261 4.00951V3.48974C164.731 3.23495 164.201 3.10245 163.528 2.83747C163.528 2.83747 163.528 3.62222 163.793 4.00951C164.058 4.65158 164.455 5.69112 164.455 6.21089L164.466 6.2211ZM164.996 9.46202C165.128 9.727 165.393 9.727 165.658 9.84931C165.923 10.1041 166.188 10.2366 166.585 10.5016C167.115 11.0213 167.38 11.6736 168.043 12.1832C168.308 12.3157 168.44 12.4482 168.573 12.4482C168.705 12.4482 169.235 12.8354 169.368 12.9679C169.368 11.9284 168.97 11.1538 168.705 10.6341C168.705 10.5016 168.573 10.3793 168.308 10.2468C167.91 9.8595 167.513 9.47221 167.38 9.47221C166.983 9.08494 166.718 8.69764 166.32 8.31037C165.923 8.31037 165.658 8.69767 165.393 8.83014C165.26 9.08494 164.731 9.34992 164.996 9.47221V9.46202ZM167.126 12.5807C166.993 12.5807 166.596 12.4482 166.066 12.3259H165.403C165.536 12.7131 165.933 13.1004 166.066 13.3654C166.066 13.4979 166.066 13.8852 166.198 14.14C166.463 14.14 166.861 14.2725 167.126 14.405C167.258 14.405 168.053 14.5374 168.318 14.7922C168.583 14.7922 169.51 15.8318 169.643 15.9541C170.04 16.2191 170.438 16.4739 170.703 16.3414C170.968 16.3414 170.703 15.9541 170.703 15.8216C170.173 15.047 169.775 13.6202 169.643 13.6202C169.245 13.4877 168.98 13.6202 168.45 13.3552C168.185 13.1004 167.391 12.7131 167.126 12.5807ZM190.383 39.0584C190.78 39.1909 191.045 40.098 191.31 40.3528C191.708 40.8726 191.575 39.4457 191.443 39.1807C191.443 39.0482 191.443 38.0189 191.178 38.0189C191.045 37.8864 190.913 37.4991 190.78 37.3666C190.648 37.7539 190.78 38.0189 190.78 38.4062C190.78 38.6712 190.25 38.9259 190.383 39.0584ZM144.541 3.7751C145.479 3.25533 147.069 2.34828 147.599 1.82851C147.731 2.09349 149.331 3.00053 149.994 3.38783C150.524 3.7751 151.054 3.9076 151.583 4.16239C151.848 3.7751 152.113 3.38783 152.378 2.48076C152.776 2.74576 153.306 2.74576 153.703 2.86806C153.703 3.38783 153.703 3.9076 153.836 4.42737C153.836 4.68216 154.101 4.54966 154.631 4.29487C155.426 4.0401 156.221 3.9076 156.628 3.7751C157.556 3.25533 158.086 2.21578 158.881 2.21578C159.543 2.21578 160.746 2.60308 161.011 2.85787C161.408 2.99035 161.673 3.12285 162.071 3.12285C162.6 3.12285 162.998 2.60308 163.395 2.3381C162.203 1.56353 160.878 0.778772 159.543 0.259001C158.748 0.901072 158.218 1.42084 157.81 1.42084C157.403 1.42084 157.678 0.646282 157.678 0.126509C157.28 0.126509 157.015 0.126509 156.618 -0.00598145C156.353 0.901072 156.221 2.07311 155.558 2.32789C155.293 2.46039 155.161 2.46039 155.028 2.46039V1.42084C155.028 1.28835 155.558 0.381301 155.426 0.259001C155.426 0.259001 154.233 0.51379 153.968 0.646282C153.836 0.778772 153.031 1.16605 152.908 1.16605C152.908 1.16605 152.511 1.03356 152.378 1.03356C151.981 0.778772 151.716 0.778772 151.318 0.51379C150.789 2.07311 150.656 2.46039 150.656 2.2056C150.656 2.2056 148.801 1.03356 148.139 0.259001C146.406 0.51379 146.406 0.778772 144.949 1.29855C144.419 1.81832 143.624 2.47058 143.094 3.24514C142.829 3.76491 142.564 4.0197 142.299 4.53947L143.624 5.05925C143.756 4.92677 144.419 4.0197 144.551 3.76491L144.541 3.7751ZM173.903 25.1876C174.168 25.4424 174.3 25.9622 174.433 26.8693C174.565 27.3891 174.83 27.5216 175.095 28.2961C175.493 28.0414 176.155 28.1636 176.155 28.1636C176.155 27.5114 175.758 26.8693 175.758 26.7368C175.625 26.4718 175.228 25.6972 175.095 25.4322C175.228 25.4322 175.625 25.952 176.288 25.952C176.42 25.952 176.828 26.0743 177.083 25.952C177.083 25.952 177.48 26.217 177.48 26.4718C177.745 26.8591 177.745 27.1241 177.888 27.5114C178.143 27.5114 178.285 27.5114 178.418 27.3789C178.948 27.3789 179.213 27.2464 179.213 27.2464C179.08 26.9916 178.948 26.7266 178.948 26.4718C178.815 26.217 178.55 25.5647 178.55 25.5647L180.935 25.1774C180.935 24.7903 180.803 24.2705 180.405 24.0055C179.213 24.3928 177.888 24.5253 176.95 24.5253C175.615 24.5253 174.29 24.2603 172.435 23.4857C172.303 23.7405 172.435 24.2603 172.435 24.2603C173.23 24.9126 173.23 24.5253 173.893 25.1674L173.903 25.1876ZM169.521 17.6561C169.786 18.6956 170.183 19.99 170.326 21.5493C170.326 21.9366 170.193 22.3341 170.326 22.7213L172.181 23.3634C172.181 23.3634 171.916 21.8041 171.651 19.99C171.386 18.4307 171.253 17.9109 170.856 17.2586C170.591 17.3911 170.458 17.3911 170.193 17.3911C169.796 17.5236 169.531 17.6459 169.531 17.6459L169.521 17.6561ZM189.588 23.1086C187.865 21.427 186 20.3874 184.146 20.3874C182.556 20.3874 181.353 21.5493 181.353 22.7213C181.353 27.3891 183.218 30.3753 184.411 32.9741C184.808 33.6264 184.94 34.1461 184.94 34.7882C185.073 36.4799 183.616 39.5884 182.688 41.2803C182.556 41.1478 181.893 41.0255 181.363 41.0255C180.038 41.0255 179.508 41.9324 179.233 42.707C178.836 42.707 178.571 42.4522 178.163 42.4522C176.573 42.3197 175.238 43.7466 175.238 45.306C175.238 46.9876 175.636 47.9047 176.298 49.0666H177.623C177.49 48.6793 177.093 46.7328 176.96 46.213C176.828 45.4385 177.093 44.9187 177.49 44.5212C178.02 43.7364 179.345 44.0014 179.345 44.0014C178.948 44.6537 178.418 45.683 178.418 46.7226C178.55 47.3749 178.683 48.4143 179.08 49.0564H180.14C180.405 48.2716 180.14 47.6297 180.14 46.9774C180.14 46.5901 180.14 46.2028 180.273 45.8155C180.273 45.5607 180.935 46.3353 180.935 46.3353C180.935 46.3353 181.465 45.683 181.465 45.1632C181.465 44.7759 180.67 44.9085 180.538 44.511C180.395 44.1237 180.803 43.2166 180.803 43.2166C181.598 42.6968 182.26 42.8293 182.535 42.8293C182.933 42.8293 183.065 42.9516 183.595 42.9516C183.993 42.9516 184.125 42.1772 184.125 41.7899C184.258 41.9122 184.655 42.1772 184.788 42.1772C185.185 42.3095 185.318 42.3095 185.715 42.432C186.245 42.6868 186.775 42.9516 187.315 43.4714V43.3389C187.183 42.8191 187.448 42.1772 187.05 41.9122C187.05 41.9122 186.388 41.3924 185.848 41.1376C185.583 40.8828 185.185 40.8828 185.053 40.6178C184.92 40.4853 184.92 40.3528 184.92 40.098C184.92 39.8432 185.053 39.4457 185.185 39.4457C185.45 39.3132 185.583 39.4457 186.113 39.7005C186.643 39.9655 187.173 40.3528 187.57 40.6076C187.57 40.6076 187.703 40.8624 187.703 40.7401C188.232 40.4853 188.232 40.3528 188.232 39.568C187.703 38.9157 188.232 38.7934 187.438 38.2737C187.173 38.2737 185.705 37.7539 185.705 37.7539C185.705 37.4889 186.102 36.847 186.102 36.847C186.235 36.7245 186.5 36.7245 186.632 36.9793C187.427 37.4991 187.957 37.4991 188.762 37.7539C188.885 37.3666 188.885 37.1118 188.63 36.847C188.365 36.4597 187.968 36.0622 187.703 35.9399C187.173 35.8074 186.908 35.6851 186.51 35.5526C186.51 35.1653 186.378 34.778 186.245 34.2582C186.245 33.9932 186.51 34.1257 186.775 34.1257C187.305 33.9932 189.568 34.778 189.568 34.778C189.568 34.2582 189.435 33.8709 189.17 33.6059C188.905 33.3409 188.64 33.0861 187.978 32.8314C187.05 32.5664 186.255 32.6989 185.583 32.3116C185.053 31.7918 184.92 31.6593 184.788 31.1395C185.185 31.0172 185.848 30.8849 186.255 30.8849C186.918 30.8849 187.315 30.7524 188.12 31.0172C188.385 31.1397 189.313 31.9243 189.71 31.9243C189.71 31.9243 189.445 30.8849 189.17 30.4976C188.783 30.4976 188.11 29.7128 187.845 29.5905C186.51 29.0707 186.255 29.3357 185.45 29.458C185.053 29.5905 184.655 29.458 184.258 29.458C184.125 29.2032 184.523 28.8057 184.39 28.5509C184.39 28.4184 183.85 28.2859 183.85 28.0311C183.85 28.0311 185.98 27.7661 186.775 27.8986C187.04 28.0311 187.835 28.5509 188.1 28.5509C188.1 28.5509 188.365 27.6439 187.968 26.8591C187.305 26.7368 186.643 26.8591 186.113 26.7368C185.583 26.6043 185.053 26.7368 184.655 26.7368C184.258 26.7368 183.85 26.6043 183.453 26.6043C183.188 26.217 183.055 25.8195 183.055 25.4322C183.055 25.4322 186.378 25.2999 186.643 25.1774C186.51 25.0451 186.245 24.9226 186.113 24.6578C185.583 23.7507 185.185 23.6182 184.523 23.6182C184.125 23.6182 183.198 24.0055 182.668 23.873C182.668 22.8334 183.198 21.9263 183.993 21.9263C185.583 21.9263 187.183 22.5684 188.508 24.0055C191.83 27.3788 193.553 33.7384 193.553 38.2839C193.553 40.363 193.288 42.3095 193.023 43.8587C193.42 43.9912 193.685 43.9912 194.082 43.9912C194.48 42.432 194.877 40.3528 194.877 38.4062C194.877 31.7918 192.482 26.2068 189.568 23.0882L189.588 23.1086ZM164.078 13.2431C163.946 13.3756 163.813 13.6304 163.813 13.7629C163.548 14.1502 163.151 14.4151 163.416 14.8024C163.548 15.3222 163.548 15.842 163.956 16.2293C164.354 16.6165 164.883 16.484 165.413 16.8815C165.413 16.8815 165.016 15.1897 164.751 14.4152C164.619 13.8954 164.354 13.6406 164.089 13.2431H164.078ZM180.415 29.5905C180.283 29.2032 179.885 29.0707 179.62 28.8159C179.62 28.8159 177.898 28.1636 177.633 28.1636C177.368 28.2961 178.296 28.8159 178.428 29.0707C178.958 29.5905 180.283 30.7624 180.283 30.7624L180.415 29.5905ZM167.798 21.0193C168.196 21.0193 168.461 21.2741 168.726 21.2741C168.726 20.8868 168.593 20.632 168.461 20.2346C168.328 19.5823 168.063 19.195 167.921 18.8077C167.921 18.4204 167.921 18.1555 167.788 17.9007C167.656 17.9007 167.523 17.9007 167.391 17.7682C166.993 17.7682 166.463 17.6357 166.463 17.6357C166.463 18.023 166.596 18.6752 166.596 19.0625C166.596 19.195 167.126 20.3569 167.258 20.4893C167.391 20.7543 167.523 20.8766 167.788 21.0091L167.798 21.0193ZM190.913 42.1772C190.913 42.0447 190.515 41.7899 190.383 41.7899C190.383 41.6574 190.24 41.1376 190.108 41.0153C189.843 40.8828 189.843 40.7503 189.578 40.7503C189.578 40.8828 189.578 41.0153 189.445 41.2701C189.445 41.5249 189.18 41.6574 189.313 41.9122C189.445 42.1772 189.578 42.1772 189.843 42.2995C189.975 42.432 190.383 43.4714 190.505 43.5937C190.638 43.4612 190.638 42.6866 190.903 42.167L190.913 42.1772ZM180.68 35.043C181.21 34.6557 181.343 33.8709 181.475 33.4836C181.608 33.0964 181.343 32.3116 181.21 32.0568C180.813 32.0568 180.548 31.7918 180.283 31.7918C180.018 31.7918 179.885 31.1397 179.488 31.272C179.62 31.537 179.885 32.8314 180.018 33.0861C180.15 33.2186 180.68 34.1257 180.68 35.0328V35.043ZM194.898 46.2028C194.898 46.2028 194.765 46.5901 194.633 46.8449C194.368 47.4972 194.235 47.752 194.235 48.1393C194.633 48.4041 194.765 48.2716 195.295 48.2716C195.56 48.2716 195.825 48.4041 195.958 48.4041C196.223 48.2716 195.958 48.0168 195.958 47.8845C195.825 47.8845 195.295 46.7124 194.898 46.1926V46.2028ZM172.446 26.9916C172.446 26.9916 170.856 26.0845 170.581 25.6972C170.316 25.6972 170.051 25.8263 169.786 26.0845C169.521 26.0845 169.388 26.217 169.256 26.4718C169.653 26.7368 169.786 26.8591 170.183 27.1241C170.316 27.2566 170.448 27.2566 170.846 27.1241H171.905C172.17 27.1241 172.435 27.2566 172.435 26.9916H172.446ZM168.858 24.138C168.726 23.8832 168.461 23.3634 168.328 23.2309C168.196 22.9761 168.063 22.7111 167.931 22.5786C167.798 22.4563 167.268 22.5786 167.003 22.5786C166.738 22.5786 166.606 22.5786 166.341 22.7111C166.606 22.9659 166.871 23.873 167.003 23.873C167.136 24.1278 167.136 24.2603 167.401 24.3928C168.063 24.5151 168.593 24.3928 169.256 24.6476C169.521 24.2603 168.991 24.2603 168.858 24.1278V24.138ZM178.958 34.3907C178.958 34.0034 178.826 33.6161 178.561 33.3511C178.428 32.9639 178.296 32.4441 178.296 32.1791C178.163 31.9243 177.633 31.1397 177.368 30.7524C177.103 30.4976 177.103 29.8453 176.971 29.458L175.371 29.7128C176.176 30.7524 176.838 31.7918 177.225 32.8314C177.358 33.2186 178.561 37.1118 178.561 37.1118C178.958 36.9793 178.428 35.0328 178.561 34.9003C178.693 34.6455 178.693 34.513 178.958 34.3805V34.3907ZM173.781 29.8453C173.781 28.6732 173.516 28.6732 172.986 28.1534C172.986 28.1534 172.588 28.9382 172.323 29.3255C172.853 29.8453 172.986 30.4976 172.986 30.4976C173.516 29.9778 173.516 30.1103 173.781 29.8453ZM192.38 47.6297H191.718C191.453 47.4972 191.32 47.4972 191.188 47.6297C190.79 48.0168 190.79 48.6691 190.525 49.0564H192.126C192.391 48.7914 192.656 48.6691 192.656 48.1493C192.656 48.027 192.656 47.762 192.391 47.6297H192.38ZM175.371 32.7091C175.371 32.7091 175.106 32.1893 175.106 32.0568C174.973 31.7918 174.841 31.4045 174.443 31.272C174.443 31.1397 174.311 31.7918 174.178 32.0568C174.046 32.3116 174.046 32.1791 173.781 32.7091C174.046 33.0964 174.178 33.3511 174.443 33.7486C174.443 33.8811 174.841 34.4009 174.841 34.4009C174.841 34.4009 175.371 33.3614 175.371 33.1066V32.7193V32.7091ZM150.126 21.0295C150.524 21.0295 150.931 20.6422 151.329 20.5097C152.124 20.2549 152.786 19.99 153.581 19.8677C153.856 19.7352 153.856 19.4804 153.856 19.2154C153.944 19.0455 153.989 18.8315 153.989 18.5733C153.989 18.4408 153.459 18.3185 153.184 17.7886C152.919 17.4013 153.184 17.014 153.051 17.014C152.654 17.2688 152.124 17.5338 151.991 17.014C151.859 16.6267 151.859 16.107 152.256 15.9745C153.581 15.4547 155.049 15.4547 156.374 15.9745C156.638 15.9745 156.771 16.2394 156.771 16.4942C156.903 16.749 156.771 17.014 156.506 17.2688C156.109 17.4013 155.701 16.8815 155.701 17.2688C155.701 17.6561 155.436 18.1759 154.773 18.4408C154.641 18.5733 154.773 18.9606 154.906 19.3479C154.906 19.4804 154.906 19.7352 155.038 19.7352C155.568 19.8677 156.374 20.0002 156.771 20.2549C157.301 20.5097 158.228 21.2945 158.361 21.162C158.758 20.9072 158.891 20.5097 159.156 20.2549C160.613 20.9072 161.806 21.2945 163.671 22.4666C163.936 22.4666 163.936 21.9468 163.936 21.6818C163.273 21.2945 161.276 20.2549 161.011 20.1224C160.481 20.0002 160.216 19.7352 159.686 19.6027V18.5631C160.613 18.8179 162.468 18.9504 164.343 19.99C164.476 19.6027 164.741 19.3377 164.608 19.2052C162.478 18.1657 160.888 17.7784 159.553 17.7784C159.553 17.6459 159.288 17.5134 159.553 17.3911C159.951 17.1363 160.083 17.0038 160.216 16.8713C160.613 16.3515 160.878 15.8318 161.011 15.312C161.408 14.5374 161.806 14.7922 162.071 13.1004C161.673 13.1004 161.53 13.3552 161.143 13.4877C161.276 13.1004 161.408 12.7131 161.408 12.3157C161.541 11.5309 161.806 11.0213 161.806 10.1041C162.203 9.9716 162.865 9.58433 162.998 9.06456C162.998 8.93206 162.998 8.54479 163.13 8.02502C163.13 7.25046 163.263 6.59818 162.998 6.07841C162.998 5.94591 162.071 4.65158 161.408 4.26431C160.481 3.87701 160.083 4.00951 159.411 4.13181C158.616 4.13181 157.545 4.90637 157.545 6.34339C156.751 6.34339 155.161 6.47589 154.223 7.25046C153.428 6.86316 152.766 6.73068 152.093 6.59818H150.901C150.768 6.07841 150.503 5.55864 149.973 5.17135C149.311 4.78408 148.506 4.26431 147.578 4.26431C147.181 4.26431 146.783 4.13181 146.386 4.39679C145.988 4.65158 145.326 4.91656 145.193 5.43635C144.928 6.0886 144.663 6.60837 144.663 7.25046C144.663 7.89252 145.061 8.42248 145.458 9.06456C145.591 9.32954 145.723 9.32954 145.988 9.45183C146.121 9.45183 146.651 9.71681 146.783 9.83912C146.916 9.96142 146.651 10.3589 146.651 11.1436C146.651 11.5717 146.695 11.959 146.783 12.3055C146.783 12.8253 146.916 13.345 147.048 13.7323C146.651 13.7323 146.386 13.345 146.121 13.61C146.121 13.875 146.386 14.5171 146.651 15.0368C147.313 15.6891 147.976 16.3312 148.373 17.1159C148.373 17.2484 148.373 17.5032 148.506 17.5032C147.578 17.6357 146.651 17.6357 145.723 17.8905C144.928 18.1453 143.991 18.5428 143.206 18.93C143.206 19.4498 143.338 19.8371 143.338 19.8371C143.471 19.8371 144.663 19.1848 145.733 18.93C147.456 18.4103 148.393 18.5428 148.393 18.5428C148.526 18.7975 148.658 19.1848 148.526 19.3173C146.936 19.9696 145.336 20.7441 143.879 21.6511C144.011 21.9161 143.879 22.3034 144.154 22.5582C145.479 21.7836 147.344 20.8766 148.669 20.3569C149.199 20.2244 149.199 20.3569 149.464 20.3569C149.596 20.4893 149.861 20.9988 150.126 20.9988V21.0295ZM158.626 19.2154C158.096 19.0829 157.698 18.6956 157.036 18.6956C157.036 18.4374 157.08 18.2642 157.168 18.1759C157.963 18.0434 158.361 18.3083 158.758 18.4408C158.758 18.5733 158.626 19.2154 158.626 19.2154ZM160.093 11.1742C159.961 11.429 159.696 11.5615 159.431 11.694C159.299 11.694 159.166 11.9488 159.166 12.0813C158.891 12.4685 158.504 12.601 157.974 12.601C157.709 12.601 157.179 12.601 156.914 12.0813C156.914 12.0813 157.046 13.6406 157.046 14.0279C157.046 14.1604 157.179 14.1604 157.179 14.1604C157.709 14.2929 157.841 14.8126 158.106 15.0674C158.106 15.0674 158.239 15.1999 158.371 15.1999C158.901 15.5872 160.093 16.107 159.563 16.107C159.563 16.3719 159.166 17.014 159.034 17.014C158.626 16.6267 157.974 16.3618 157.433 16.107C157.301 15.8522 157.168 15.5872 157.036 15.3324C156.771 15.0674 156.638 15.0674 156.241 14.8126C156.241 13.9056 156.109 13.9056 156.109 12.9985C156.109 12.866 155.844 11.4392 155.844 11.4392C155.844 11.3067 156.241 10.9194 156.638 10.7869C156.638 10.7869 159.166 10.7869 160.358 10.9194C160.358 10.9194 160.226 11.1742 160.093 11.1742ZM159.288 5.7217C159.686 5.33443 160.226 5.20193 160.756 5.33443C161.418 5.46691 161.551 5.5892 161.816 5.8542C162.213 6.37398 162.081 7.41352 161.948 8.05558C161.816 8.44287 161.418 8.70785 161.021 8.70785C160.358 7.93329 159.696 7.40333 158.758 7.14854C158.626 6.62877 159.034 6.109 159.288 5.7217ZM156.771 8.32056C157.036 8.32056 159.288 8.84033 157.831 9.48242C157.566 9.7474 156.903 9.6149 156.241 9.6149C156.241 9.3601 156.241 8.84033 155.976 8.84033C155.701 8.57535 155.314 8.57535 155.314 8.32056C154.773 7.80079 156.109 8.18808 156.771 8.32056ZM151.318 8.84033C151.716 8.57535 152.113 8.32056 152.378 8.32056C152.643 8.18808 153.173 8.05558 153.173 8.32056C153.173 8.84033 152.776 9.09512 152.378 9.6149C152.113 10.0022 151.981 9.7474 151.318 9.7474H150.656C150.656 9.3601 150.921 9.22762 151.318 8.84033ZM147.334 8.96264C147.069 8.70785 146.528 8.32056 146.274 7.80079C145.876 7.28102 146.009 6.76125 146.009 6.62877C146.274 5.8542 147.201 5.5892 147.741 5.45672C148.006 5.45672 148.271 5.45672 148.669 5.7217C149.199 5.9765 149.464 5.9765 149.729 6.88354C149.729 7.01604 149.729 7.13833 149.596 7.13833C149.596 7.13833 148.801 7.6581 148.536 7.9231C147.874 8.31037 147.741 8.96264 147.344 8.96264H147.334ZM149.586 15.577C149.851 15.1897 150.391 14.9349 150.789 14.8024C151.318 14.6699 151.186 13.6304 151.186 13.5081C151.318 13.2431 151.186 12.8558 151.186 12.601C150.921 12.7335 150.921 12.601 150.391 12.7335C149.851 12.7335 149.586 12.4685 149.331 12.2138C149.056 11.959 148.404 11.4392 148.139 10.9194C148.801 10.7869 149.331 10.7869 149.994 10.7869H151.726C152.124 10.9194 152.389 11.1742 152.389 11.4392C152.389 11.5717 152.256 12.3463 152.256 12.4788C152.124 13.2533 152.124 13.5183 151.991 14.6903V15.0776C151.859 15.3426 151.329 15.4649 151.064 15.7299C150.931 16.1172 150.931 16.3821 150.534 16.5044C150.136 16.6369 149.871 17.0242 149.606 16.8917C149.209 16.6369 149.341 15.9847 149.606 15.5872L149.586 15.577ZM149.586 18.4307C149.586 18.4307 150.116 18.2982 150.513 18.2982C150.778 18.2982 151.043 18.2982 151.308 18.4307C151.176 18.5631 150.646 18.8179 150.646 18.8179C150.381 18.9504 150.248 19.0727 149.851 19.2052C149.718 18.9504 149.586 18.4307 149.586 18.4307ZM163.538 24.6578C163.936 25.1774 164.343 25.5647 164.741 25.9622C164.873 26.2272 165.271 26.2272 165.536 26.2272H166.861C167.258 26.0947 167.523 26.0947 167.788 25.8399C167.258 25.5851 166.596 25.3201 166.055 25.0551C165.525 24.8003 165.128 24.5355 164.731 24.1482C164.466 24.1482 164.333 24.2807 164.19 24.2807C163.925 24.4132 163.793 24.5455 163.528 24.668L163.538 24.6578ZM169.388 29.0707H170.051C170.316 29.0707 170.316 28.5509 170.051 28.5509C169.123 28.2859 168.328 28.0311 167.798 27.2464C167.666 27.3789 166.871 27.6336 166.606 27.8986C166.606 27.8986 166.871 28.5509 167.533 29.2032C167.931 29.5905 168.736 29.3357 169.398 29.0707H169.388ZM187.458 48.0168C187.325 48.4041 187.193 48.6691 186.928 48.9239C187.06 49.0564 187.325 49.0564 187.458 49.0564H188.793C188.915 48.9239 188.915 48.5366 189.058 48.2716C189.058 48.0168 189.19 47.752 189.19 47.3647H188.395C187.998 47.3647 187.6 47.6297 187.468 48.0168H187.458ZM176.838 36.5922C176.706 36.3272 176.573 35.9399 176.441 35.6851C176.441 35.5526 176.441 35.2978 176.308 34.9105C176.308 34.9105 175.381 35.5628 175.248 35.6851C175.778 36.3374 175.513 36.7245 175.646 37.2443C175.646 37.4991 176.186 37.6316 176.308 38.0189C176.308 38.1412 176.043 39.3132 176.043 39.3132C176.838 38.2737 176.838 36.9793 176.838 36.5922ZM183.748 43.4714C183.086 43.4714 182.28 44.246 181.761 46.7124C181.628 47.6195 181.496 48.4041 181.628 48.9239L182.821 49.0564C183.086 48.6691 183.086 48.0168 183.351 47.4972C183.351 47.2424 183.616 47.2424 183.881 47.2424C184.146 47.3749 184.686 48.0168 184.94 48.2818C185.073 48.027 185.338 47.5074 185.338 47.1099C185.338 46.9774 184.94 46.7226 184.808 46.7226C184.411 46.4678 184.146 46.2028 183.616 46.2028C183.483 45.683 184.278 45.0307 184.278 45.0307C185.205 45.0307 186.143 46.0703 186.143 46.0703C186.408 45.9378 186.541 45.5505 186.806 45.2957C186.011 43.8689 184.543 43.4816 183.748 43.4816V43.4714ZM173.118 34.3907C172.986 34.778 172.588 35.043 172.588 35.5628C172.588 35.5628 173.251 36.2049 173.383 36.6022C173.516 36.857 173.383 38.0291 173.516 38.2839C173.913 37.8966 174.178 37.7641 174.178 37.2443C174.046 37.1118 173.913 36.0724 173.781 35.2978C173.781 35.0328 173.383 34.6455 173.118 34.3907ZM161.164 25.0451C161.164 25.0451 161.296 25.6972 161.561 26.3495C161.694 26.6145 161.959 26.8693 162.101 26.8693C162.366 27.0018 162.896 27.1241 163.294 27.1241V26.8693C162.896 26.482 162.366 25.5749 162.366 25.3099C162.189 25.2284 161.969 25.1876 161.704 25.1876C161.571 25.0551 161.306 25.0551 161.174 25.0551L161.164 25.0451ZM167.544 30.8849C167.279 30.6301 167.014 30.3651 166.616 30.1103C166.076 29.9778 165.821 29.723 165.546 29.2032C165.413 28.9484 165.281 28.6834 165.016 28.4184C164.751 28.4184 164.619 28.5509 164.354 28.6834C164.089 28.9484 163.548 28.9484 163.283 29.3357C163.416 29.5905 163.548 29.8555 163.813 30.1103C163.946 30.2428 164.078 30.4976 164.619 30.7624C165.546 31.2822 165.811 31.4045 165.811 31.4045C166.606 31.537 167.533 30.8849 167.533 30.8849H167.544ZM140.841 12.0711C141.018 11.8129 141.195 11.5955 141.371 11.4188C141.912 11.0315 142.176 10.7665 142.839 10.2468C142.971 9.98179 143.104 10.1143 143.501 9.8595C143.634 9.727 143.766 9.59452 143.766 9.47221C143.766 9.21744 143.634 8.95244 143.501 8.69764C143.369 8.43267 143.104 7.7906 143.104 7.6581C143.104 6.61856 143.236 6.36377 143.369 5.45672C142.839 5.32422 142.176 5.32422 141.912 5.844C141.647 6.23129 141.647 6.61856 141.647 7.01604C141.647 7.6581 141.779 8.17787 141.912 8.96264C141.371 9.34992 141.106 9.6149 140.587 9.86969C140.719 10.6443 140.852 12.0711 140.852 12.0711H140.841ZM161.174 29.0707C160.644 28.2961 160.511 27.5114 160.511 27.3891C160.246 27.1241 160.776 26.2272 160.114 26.2272C159.849 26.0947 159.054 25.8399 159.054 25.8399C158.911 26.2272 158.911 27.012 159.054 27.3993C159.054 27.7866 159.716 28.9586 159.981 29.0809C160.114 29.2134 160.776 29.2134 160.919 29.2134C161.051 29.0809 161.184 29.0809 161.184 29.0809L161.174 29.0707ZM157.056 24.2705C157.321 24.0157 157.586 23.4959 157.586 23.3634C157.851 22.8436 157.851 22.2016 157.851 21.6818C156.791 21.0295 155.456 20.9072 154.131 20.9072C152.939 20.9072 151.604 21.0295 150.279 21.9468C150.411 22.4666 150.544 22.8538 150.809 23.3736C150.941 23.3736 151.074 23.6386 151.206 23.6386C151.471 23.3736 151.746 22.9863 152.134 22.8641V23.3838C152.134 23.7711 152.134 24.0359 152.266 24.4232C152.266 24.8105 152.664 24.8105 153.194 24.8105C153.724 24.8105 153.856 23.9036 153.856 23.7711C153.856 23.7711 153.989 24.2907 154.784 24.678C154.784 24.678 155.711 24.678 155.711 24.5455C155.844 23.8934 155.986 23.7711 155.844 23.2513C155.844 23.2513 156.638 23.7711 157.036 24.2907L157.056 24.2705ZM162.244 32.7091C162.774 33.0964 163.834 32.9639 164.771 32.8416C164.231 32.4543 164.109 32.1893 163.834 31.9345C163.436 31.6695 163.171 31.5472 162.641 31.0274H160.919C161.184 31.6695 161.306 32.067 162.244 32.7091ZM170.081 37.5093C169.949 37.387 169.684 37.2545 169.419 37.122V37.6418C169.419 38.1616 169.551 38.2941 169.551 38.5489C169.551 38.8037 169.949 40.628 169.949 41.1478C170.611 41.2803 170.611 41.7999 171.009 42.0547C171.009 42.0547 170.744 40.4955 170.744 38.5489C170.744 38.4164 170.346 37.6418 170.081 37.5093ZM141.657 14.4152C141.789 14.2827 143.247 13.2431 143.379 13.1208C143.644 12.866 143.777 12.9883 143.909 12.7335C143.909 11.9488 144.184 11.9488 144.042 11.694C143.909 11.429 142.849 11.694 142.584 11.694C141.922 11.8163 140.729 12.2138 140.729 12.4685C140.597 12.8558 140.597 13.7629 140.597 13.8954C140.729 14.2826 140.729 14.6699 140.862 15.0572C141.27 14.6699 141.392 14.5374 141.667 14.405L141.657 14.4152ZM157.067 26.6145C156.669 26.8693 156.404 27.0018 156.404 27.2566C156.404 27.7764 156.536 28.2961 156.536 28.5611C156.536 28.9484 156.536 29.2134 156.669 29.3357C157.066 29.4682 157.199 29.4682 157.729 29.723C157.729 29.8555 158.259 30.1103 158.259 30.1103C158.259 30.1103 157.994 28.9484 157.862 28.4184V26.3393C157.332 26.4718 157.199 26.6043 157.067 26.6043V26.6145ZM155.344 26.8693C154.804 27.0018 153.744 27.1241 153.744 27.5216C153.611 27.9089 153.744 28.2961 153.744 28.5611C153.876 28.8159 153.876 29.0809 153.876 29.4682C153.876 29.723 153.744 29.988 153.876 30.3753C154.009 30.1103 154.671 29.8555 154.804 29.5905C155.069 29.2032 155.344 28.9484 155.466 28.5509C155.599 28.1636 155.466 27.5114 155.334 26.8591L155.344 26.8693ZM160.521 34.0034C160.124 33.7486 159.461 32.9639 159.064 32.5766C158.789 32.3218 158.921 31.9345 158.657 31.6695C158.392 31.6695 158.127 31.6695 157.862 31.802C157.464 31.802 157.199 31.802 156.801 31.9345C156.934 32.1893 156.934 32.4543 157.199 32.5766C157.729 33.0964 157.729 33.2289 158.259 34.0034C158.391 34.2684 159.064 34.3907 159.584 34.3907C159.849 34.3907 160.379 34.1359 160.511 34.0034H160.521ZM139.924 19.3377C140.189 18.9504 140.984 18.1657 141.382 17.6459C141.657 17.3911 142.187 16.7388 143.512 16.0866C143.644 15.5668 143.777 15.1795 143.777 14.6598C142.452 15.047 141.514 15.312 141.259 15.5668C140.597 15.9541 140.322 16.2191 139.659 16.6063C139.659 17.1227 139.703 17.51 139.792 17.7682L139.924 19.3275V19.3377ZM152.684 30.3651C153.082 29.9778 152.684 29.3255 152.684 28.9382C152.552 28.5509 152.684 28.1534 152.552 27.7661C152.419 27.5114 152.154 27.3789 151.889 27.3789C151.624 27.3789 150.962 26.9916 150.962 27.2464C150.299 27.2464 150.829 27.8986 150.829 28.2859C150.829 28.8057 152.154 30.1001 152.154 30.1001C152.419 30.2326 152.419 30.1001 152.694 30.3651H152.684ZM149.097 28.2859C149.229 27.7661 149.627 27.5114 149.627 26.6043C149.627 26.6043 149.494 25.952 149.362 25.6972C149.229 25.4424 149.086 25.1774 148.699 24.9226C148.567 24.9226 148.302 24.6578 148.169 24.7903C148.169 24.7903 148.037 25.8297 147.904 25.9622C148.169 26.3495 148.434 26.6145 148.567 27.0018C148.699 27.3891 148.832 27.9089 149.097 28.2961V28.2859ZM146.304 24.2603C146.172 24.0055 145.774 23.873 145.509 23.7405C145.244 23.7405 144.979 24.2603 144.979 24.7801C144.979 25.0349 145.112 25.952 145.244 26.3393C145.244 26.4718 145.509 26.6043 145.774 26.7266C146.172 26.9813 146.569 27.1138 146.967 27.3686C146.967 27.3686 146.569 26.2068 146.437 25.5547C146.304 25.1674 146.569 24.6476 146.304 24.2501V24.2603ZM158.126 38.2737C158.259 38.2737 158.391 38.0189 158.391 38.0189C158.259 37.4991 158.126 36.847 157.994 36.3272C157.994 36.3272 157.586 36.0622 157.199 36.0622C156.934 36.0622 156.669 35.9297 156.404 36.0622C156.537 36.4495 156.536 36.7145 156.669 37.1018C157.066 37.6214 157.596 37.8762 158.126 38.2634V38.2737ZM140.057 19.8473V20.4893C140.057 20.7543 140.189 22.1811 140.189 22.5684C140.322 22.9557 140.322 23.343 140.454 23.7405C140.597 23.9953 140.729 24.2603 140.729 24.5151C140.729 24.5151 140.994 24.3928 141.127 24.1278C141.524 23.7405 141.667 23.3532 141.932 22.8334C141.799 21.9263 141.535 21.1416 141.535 20.8868C141.535 19.8473 141.667 19.5925 141.799 18.9402C141.27 19.195 140.607 19.5925 140.067 19.8473H140.057ZM153.082 34.7678C153.479 34.6353 153.744 34.3805 154.141 34.248C154.406 34.1155 154.671 32.0466 154.671 32.0466C154.671 32.0466 153.877 32.1689 153.734 32.3014C153.601 32.3014 153.072 32.3014 152.807 32.5561C152.807 32.9434 152.806 33.3307 152.674 33.8505C152.409 34.2378 151.746 34.5028 151.746 35.1449C151.746 35.1449 152.276 35.2774 152.409 35.2774C152.674 35.1449 152.939 34.8901 153.071 34.7576L153.082 34.7678ZM167.431 47.7418C167.166 48.2616 166.901 48.7812 166.901 49.0462H168.369C168.766 48.5264 168.899 48.0068 168.634 47.2322C168.237 47.3647 167.441 46.9672 167.441 47.752L167.431 47.7418ZM168.491 41.7695C168.226 41.637 165.699 40.4751 165.301 40.4751C164.506 40.6076 163.182 40.6076 162.376 40.9949C162.244 40.6076 162.111 39.9553 162.376 39.568C162.509 39.303 163.844 39.303 164.242 39.303C165.709 39.4355 166.504 39.6903 166.901 39.6903C167.299 40.0776 167.706 40.0776 167.829 40.0776C167.829 40.0776 167.696 39.2928 167.564 39.038C167.034 38.7832 166.504 38.6507 166.096 38.5182C165.434 38.2532 165.169 38.1309 164.109 37.9984C163.711 37.9984 163.712 38.1207 162.917 38.1207C162.917 37.9984 163.049 37.8659 163.181 37.7337C163.446 37.3464 163.711 37.0916 163.976 36.8266H166.096C166.636 36.9591 166.891 37.0916 167.564 37.3464C167.961 37.3464 167.564 36.7043 167.564 36.3068C167.431 36.1743 167.299 36.0418 167.034 35.9195C166.504 35.787 166.096 35.6647 165.566 35.3997C165.169 35.2774 164.374 35.0124 163.711 35.1449C163.049 35.3997 163.049 35.2774 162.509 35.5322C161.846 36.4393 161.449 37.4789 161.051 38.5182C161.051 38.773 160.389 40.3324 160.389 40.5974C160.389 40.7299 160.256 40.9847 160.256 40.9847C159.716 40.8522 157.331 40.4649 156.669 41.107C156.404 41.3618 156.139 41.6268 155.732 42.4014C155.202 42.0141 154.804 41.8816 154.274 41.8816C153.612 41.8816 152.817 42.2689 152.419 42.9212C152.419 43.0537 151.359 45.0001 151.492 46.8143C151.624 47.8539 152.022 48.2412 152.552 49.026H154.019C153.887 48.5062 153.612 47.8539 153.357 47.0793C153.224 46.427 153.489 45.2651 153.622 44.2255C153.622 44.2255 154.029 43.9707 154.417 43.8382C154.682 43.5834 154.814 43.7057 155.212 43.7057C155.344 43.7057 155.344 43.8382 155.344 43.8382C154.804 44.358 154.804 44.8778 154.682 45.6524C154.682 46.0397 155.212 47.9864 155.742 49.026H156.812C156.812 49.026 156.547 46.427 156.679 46.1722C156.679 45.6524 156.812 45.2651 156.944 44.8778C157.209 45.0103 157.474 45.0103 157.739 45.1326C158.137 45.3976 158.137 45.6524 158.137 46.0397C158.137 46.692 158.137 46.8143 158.004 47.2118V47.8641C158.004 48.5164 158.137 49.036 158.137 49.036H159.207C159.207 47.8641 159.329 47.9966 159.472 47.3443C159.604 46.8245 159.472 46.5697 159.604 46.1722C159.604 45.9072 159.737 45.6524 159.869 45.5199C160.267 45.2651 160.532 45.2651 161.062 45.3976C161.062 45.7849 161.062 46.1722 160.929 46.5595C160.797 47.2118 160.664 47.8539 160.389 48.5062C160.389 48.6387 160.257 48.8935 160.124 49.026H161.714C161.714 49.026 161.979 48.5062 162.111 47.8539C162.499 48.2412 163.039 47.9864 163.304 47.9864C163.701 47.8539 163.966 47.4666 164.231 47.2118C163.701 46.8245 162.499 46.9468 162.499 46.427C162.234 45.5199 162.499 45.3874 162.499 44.8676C162.499 44.093 161.704 43.828 160.909 43.6957C160.644 43.5735 160.104 43.5734 159.849 43.5734C159.584 43.6957 159.309 44.093 159.054 44.093C159.054 44.093 158.514 43.7057 158.116 43.5734C157.851 43.5734 157.056 43.3085 157.056 43.3085C157.189 43.0537 157.321 42.7887 157.454 42.6562C157.586 42.5339 157.994 42.1364 158.116 42.1364C158.381 42.0039 158.779 42.1364 159.054 42.2689C159.716 42.4014 160.246 42.5339 160.379 42.5339C160.511 42.5339 160.919 42.7887 160.919 42.7887C161.306 42.5339 161.306 42.2689 161.582 42.2689C162.376 42.0141 162.641 41.8816 163.436 41.8816C164.099 41.8816 164.639 43.0537 165.026 43.4409C165.159 43.6957 166.086 44.8676 166.626 45.9072C166.891 45.7747 167.024 45.5199 167.289 45.5199C167.289 45.2651 167.156 44.2255 167.024 44.093C166.626 42.9212 165.831 42.6664 165.831 42.4014C166.096 42.4014 166.626 42.6562 166.891 42.6562C167.156 42.7887 167.554 42.9109 167.951 43.1759C168.084 43.3084 168.349 43.4409 168.491 43.5632C168.624 44.083 168.624 44.4701 168.889 44.9899C168.889 45.1224 168.889 45.2549 169.021 45.3772C169.419 44.5924 169.816 44.4701 170.081 43.818C169.816 42.646 169.154 42.1364 168.491 41.7389V41.7695ZM151.614 31.5168C151.614 31.3843 151.216 31.3843 150.951 31.3843C150.686 31.3843 150.421 31.5168 150.146 31.5168C149.881 31.9039 149.749 32.2911 149.616 32.8109C149.484 33.1982 149.219 33.4632 149.086 33.718C149.086 33.718 150.289 33.4632 150.554 33.4632C150.951 33.2084 151.216 33.0759 151.481 32.5561C151.614 32.1689 151.746 32.0364 151.614 31.5168ZM141.259 26.9711C141.259 26.9711 141.657 26.7163 141.657 26.4513C142.319 25.677 143.114 25.0247 143.247 24.8922C142.982 24.2399 142.849 24.1074 142.441 23.7201C142.309 23.8526 141.647 24.2399 141.514 24.4947C141.249 24.6272 140.984 24.7495 140.852 24.882C140.852 25.1368 140.984 25.2693 141.117 25.5241C141.117 25.7788 141.249 26.4311 141.249 26.9509L141.259 26.9711ZM155.069 39.303C154.937 39.1705 154.936 38.9157 154.804 38.6609C154.539 37.8762 154.671 37.4889 154.539 36.7145H153.479C153.214 36.8368 153.081 36.7145 152.817 36.8368C152.817 37.3564 152.949 37.7437 153.346 38.3959C153.744 39.1705 155.079 39.303 155.079 39.303H155.069ZM147.894 29.8351H147.099C147.099 29.8351 146.834 30.8747 146.834 31.6491C146.702 32.0364 146.569 32.3014 146.569 32.4236C146.304 32.9434 146.172 33.0759 145.907 33.718C146.304 33.8505 146.702 33.5855 146.967 33.5855C147.232 33.453 147.629 33.3205 147.772 33.1982C147.904 33.0657 148.302 32.1586 148.434 31.9039V30.997C148.302 30.732 148.434 30.2122 148.434 29.8249C148.302 29.5599 148.037 29.6924 147.904 29.8249L147.894 29.8351ZM142.849 29.1828C143.114 28.7955 143.909 28.0107 144.174 27.7559C143.899 27.5011 143.777 27.1036 143.644 26.8489C143.114 26.8489 141.117 27.6234 141.117 27.6234C141.514 28.2757 141.779 28.928 142.044 29.7026C142.309 29.5701 142.574 29.4478 142.839 29.1828H142.849ZM144.439 32.1689C144.572 31.7816 144.439 31.5268 144.572 31.1295C144.572 30.8747 144.572 30.2224 144.704 29.8351C144.439 29.7026 143.899 29.9676 143.512 29.9676C143.124 29.9676 142.187 29.9676 142.187 30.1001C142.319 30.3651 142.319 30.6199 142.452 30.8747C142.584 31.1295 142.717 31.3943 142.717 32.0466C142.717 32.4339 142.849 32.8211 142.717 33.3409C142.717 33.3409 144.449 32.4339 144.449 32.1689H144.439ZM147.496 35.8074C146.834 35.2876 145.774 34.7678 144.174 34.248C143.777 34.1155 142.849 34.248 142.441 34.248C141.382 36.0622 140.984 37.7539 140.189 39.7005C140.057 40.0878 139.792 40.8726 139.792 40.8726C139.129 40.4853 138.467 40.2305 137.794 40.2305C136.734 40.2305 135.929 40.6178 135.542 41.6574C135.144 41.5249 134.614 41.2701 133.952 41.3924C133.025 41.5249 132.219 42.0447 131.822 42.8191C131.424 43.3389 131.292 43.8587 131.424 44.3785C130.762 44.6435 130.354 45.2855 130.1 45.8053C129.835 46.8449 130.762 48.6589 131.159 49.0564H132.484C132.219 47.8845 131.689 47.3647 132.087 46.2028C132.352 45.5505 133.279 45.2957 133.554 45.1632C133.554 44.6434 132.892 44.2562 133.025 43.7364C133.289 43.0943 134.084 43.0943 134.879 43.2166C134.747 44.0014 134.614 45.0307 134.482 46.0703C134.349 47.2424 135.012 49.0564 135.012 49.0564H136.469C136.337 48.6691 136.204 48.2716 136.204 47.8845C136.072 47.4972 136.072 47.2322 136.072 46.8449C136.204 46.3251 136.204 45.8053 136.204 45.418C137.529 44.7657 137.132 45.6728 137.397 45.9378C137.397 45.9378 137.937 44.7759 137.264 44.2562C137.132 44.1237 136.337 44.2562 136.337 44.1237C136.337 43.9912 136.469 43.6039 136.602 43.2166C136.867 42.6968 136.999 42.5745 137.264 42.1772C137.397 42.0447 137.794 42.0447 138.324 42.1772C138.457 42.1772 139.119 42.3095 139.516 42.432C139.384 42.8191 138.854 43.6039 138.722 43.9912C138.192 45.5505 138.192 47.3647 138.324 49.0564H139.781C139.781 48.1493 139.649 47.1099 139.781 46.2028C140.046 45.0307 140.444 44.9085 140.587 44.9085C140.852 44.9085 141.117 45.1632 141.249 45.4282C141.514 46.7226 140.719 47.8945 140.719 49.0564H141.779C141.779 49.0564 142.176 48.9239 142.309 48.5366C142.574 47.752 143.104 46.9774 143.236 46.2028C143.369 45.5505 143.104 45.0307 142.696 44.2562C142.299 43.7364 141.901 43.3491 140.974 42.6968C140.709 42.1772 140.974 41.5351 140.974 41.5351C140.974 41.6676 141.504 41.4026 141.769 41.4026C142.829 41.6676 143.094 41.6676 143.624 41.9224C144.021 42.0547 144.551 42.3095 144.949 42.5745C145.346 42.8293 145.744 43.6141 146.141 44.5212C146.141 44.5212 146.406 42.8395 146.406 42.3197C145.876 41.7999 145.346 41.2803 144.541 40.893C143.879 40.3732 142.421 39.9859 141.759 39.7209C141.759 39.7209 142.024 39.3337 142.024 39.0789C142.819 38.9464 143.756 38.9464 144.154 39.0789C145.479 39.4662 147.079 40.2509 147.741 40.7707C147.741 40.7707 148.006 40.2509 148.006 39.9962C148.006 39.9962 146.151 38.8241 146.274 38.4368C145.744 38.0495 145.346 37.6622 144.816 37.5297C144.021 37.4074 142.421 37.2749 142.421 37.2749C142.421 37.2749 142.819 36.7551 143.226 36.3678H144.286C144.816 36.3678 146.141 36.7551 146.936 37.1526C148.139 37.6724 148.791 38.0597 148.934 38.3145C149.066 37.9272 149.199 37.4074 149.331 37.1526C147.864 36.6328 147.996 36.113 147.466 35.848L147.496 35.8074ZM145.112 46.4474C144.184 46.4474 144.449 47.8743 144.184 48.5264C144.052 48.6589 143.909 48.9137 144.052 49.0462H146.049C146.049 49.0462 146.182 47.8743 146.182 47.6195C146.049 47.3545 145.652 46.7124 145.122 46.4474H145.112Z" fill="#040404"/>
</g>
</svg>
