<svg width="128" height="50" viewBox="0 0 128 50" fill="none" xmlns="http://www.w3.org/2000/svg">
<path fill-rule="evenodd" clip-rule="evenodd" d="M55.9538 24.0282C53.4183 21.5531 49.9418 20.0105 46.1344 20.0105H19.1595L29.1357 10.0052H54.5162C55.5878 10.0227 56.5898 10.4933 57.2954 11.1992L72.0289 25.9804C74.5644 28.4469 78.032 29.9982 81.8657 29.9982H108.867L98.8731 40.0035H73.5188C72.4296 39.9686 71.4452 39.5067 70.7308 38.7746L55.9538 24.0282ZM63.6646 45.8689C66.1739 48.4051 69.6589 50 73.5188 50H102.986L128 25.0043L102.986 0H88.8621L108.867 20.0105H81.8657C80.8027 20.0105 79.8094 19.5834 79.1125 18.9036L64.3616 4.14851C61.8349 1.58621 58.3584 0.0087185 54.5162 0H25.006L0 25.0043L25.006 50H39.138L19.1595 29.9982H46.1344C47.206 29.9982 48.1732 30.4253 48.8876 31.1225L63.6646 45.8689Z" fill="#040404"/>
</svg>
