<svg width="189" height="50" viewBox="0 0 189 50" fill="none" xmlns="http://www.w3.org/2000/svg">
<mask id="mask0_2243_97" style="mask-type:luminance" maskUnits="userSpaceOnUse" x="0" y="0" width="189" height="50">
<path d="M188.746 0H0V50H188.746V0Z" fill="white"/>
</mask>
<g mask="url(#mask0_2243_97)">
<path d="M40.5257 33.4064C36.6084 33.4064 34.6853 30.4862 34.614 26.1414C34.5428 21.7968 36.8932 19.1614 40.3832 19.0902C42.1169 19.1617 43.8159 19.5986 45.369 20.3723L46.0813 13.6771C43.8111 13.0275 41.4625 12.692 39.1011 12.6799C35.0413 12.6799 31.8363 14.1757 29.6994 16.5973C27.5628 19.019 26.4944 22.4379 26.4232 26.1414C26.4232 30.0589 27.4915 33.4777 29.6994 35.9706C31.9076 38.4635 35.1126 39.8879 39.3148 39.8879C42.1638 39.8879 44.9417 39.5318 46.5086 38.8908L46.1525 31.9108C44.443 32.5518 42.5913 33.4064 40.5257 33.4064ZM16.0243 19.0902C14.1724 18.3067 12.3918 17.7369 11.1098 17.0247C9.82772 16.3124 9.1867 15.6714 9.1867 14.603C9.12574 14.0013 9.22547 13.3942 9.47572 12.8437C9.72599 12.2931 10.1178 11.8188 10.6112 11.4691C11.5529 10.9619 12.6043 10.6929 13.6739 10.6856C15.8819 10.6856 18.3035 11.3979 21.0813 12.4663L21.8647 5.34375C19.0297 4.44404 16.0781 3.96412 13.1041 3.91923C10.0991 3.85225 7.14429 4.6965 4.62831 6.3409C2.27788 8.12153 0.710938 10.8993 0.710938 14.8167C0.710938 20.7284 4.77075 23.0789 8.47445 24.5745L13.389 26.7112C16.0955 28.0645 15.6682 31.1985 13.6739 32.1243C12.5782 32.7139 11.3568 33.0316 10.1126 33.0504C7.69097 33.0504 5.1981 32.3381 1.99299 30.5575L1.13829 38.3923C4.16646 39.3106 7.30525 39.8137 10.4688 39.8879H10.54C13.9588 39.8879 17.2351 39.1758 19.728 37.4662C22.2209 35.7568 23.7878 32.4093 23.7878 29.0618C23.7878 23.3637 19.728 20.5859 16.0243 19.0902ZM172.79 16.3124C170.106 13.9727 166.665 12.6838 163.104 12.6838C159.543 12.6838 156.102 13.9727 153.417 16.3124C152.126 17.654 151.114 19.2392 150.442 20.9756C149.769 22.712 149.449 24.5649 149.5 26.4264C149.442 29.9429 150.714 33.3514 153.061 35.9706C155.412 38.3923 158.83 39.8879 163.104 39.8879C164.957 39.9623 166.806 39.6525 168.534 38.9783C170.263 38.3043 171.833 37.2802 173.146 35.9706C175.493 33.3514 176.765 29.9429 176.708 26.4264C176.759 24.5649 176.438 22.712 175.766 20.9756C175.093 19.2392 174.082 17.654 172.79 16.3124ZM167.377 31.056C167.022 31.6175 166.56 32.1033 166.017 32.4858C165.473 32.8685 164.86 33.1402 164.212 33.2858C163.564 33.4312 162.893 33.4477 162.239 33.3339C161.584 33.2202 160.958 32.9787 160.397 32.6231C159.742 32.2531 159.2 31.7112 158.83 31.056C158 29.3766 157.608 27.5145 157.691 25.6429C157.691 22.2241 159.471 19.0902 163.104 19.0902C166.736 19.0902 168.517 22.1529 168.517 25.7141C168.61 27.5637 168.217 29.4054 167.377 31.056ZM100.283 37.1814C101.155 38.0568 102.203 38.7377 103.357 39.1798C104.511 39.6216 105.745 39.8143 106.978 39.7456C108.652 39.8191 110.316 39.4733 111.822 38.7393C113.327 38.0054 114.625 36.9066 115.597 35.5433C117.306 32.9791 118.018 29.6316 118.018 26.2127C118.018 22.7227 117.306 19.4463 115.597 16.9534C113.887 14.4606 111.038 12.8224 107.121 12.8224C105.857 12.7868 104.6 13.0084 103.424 13.4736C102.249 13.9389 101.18 14.6381 100.283 15.5289V13.2497H92.6623V49.1473H98.0041C98.6087 49.1473 99.1885 48.9071 99.6158 48.4796C100.043 48.0523 100.283 47.4725 100.283 46.8681V37.1814ZM108.973 31.1272C108.189 32.5518 107.192 33.4064 105.412 33.4064C104.63 33.4306 103.857 33.2283 103.188 32.8241C102.518 32.4197 101.979 31.8304 101.637 31.1272C100.868 29.6297 100.477 27.967 100.497 26.2839C100.431 24.587 100.851 22.9066 101.708 21.4406C102.098 20.7768 102.647 20.2207 103.307 19.8227C103.966 19.4248 104.714 19.1975 105.483 19.1614C106.24 19.1671 106.98 19.3921 107.612 19.8092C108.244 20.2264 108.741 20.8178 109.044 21.5118C109.728 23.0083 110.069 24.6389 110.041 26.2839C110.052 27.9581 109.687 29.6131 108.973 31.1272ZM85.0412 39.3181C85.6458 39.3181 86.2254 39.0781 86.6529 38.6506C87.0804 38.2231 87.3204 37.6435 87.3204 37.0389V13.2497H79.4858V39.3181H85.0412ZM81.6937 4.06169C80.4829 4.34658 79.4858 5.13006 79.4858 6.3409V10.5432H87.3204V2.92208L81.6937 4.06169ZM182.406 1.71126C181.124 1.99616 180.126 2.70841 180.126 3.99046V39.3181H185.753C186.358 39.3181 186.938 39.0781 187.365 38.6506C187.793 38.2231 188.033 37.6435 188.033 37.0389V0.571655L182.406 1.71126ZM66.3804 25.2868V39.3181H71.9358C72.5404 39.3181 73.12 39.0781 73.5475 38.6506C73.975 38.2231 74.215 37.6435 74.215 37.0389V23.0077C74.215 20.1586 73.574 17.5945 72.0783 15.6714C70.5827 13.7483 68.2321 12.6087 65.1696 12.6087C62.5315 12.6108 59.99 13.6019 58.0471 15.3865V0.785331L52.4915 1.92493C51.2094 2.20983 50.2123 2.99331 50.2123 4.20414V39.3181H58.0471V25.9279C58.0902 24.4281 58.429 22.9516 59.0442 21.5831C59.364 20.8169 59.9108 20.1671 60.6113 19.7213C61.3117 19.2756 62.1321 19.0553 62.9615 19.0902C64.7421 19.1614 65.3831 19.8025 65.8817 21.0133C66.2973 22.3974 66.466 23.8441 66.3804 25.2868ZM138.318 25.2868V39.3181H143.944C144.538 39.2841 145.098 39.0331 145.518 38.6129C145.938 38.1925 146.189 37.6323 146.223 37.0389V23.0077C146.152 20.1586 145.511 17.5945 144.015 15.6714C142.52 13.7483 140.169 12.6087 137.107 12.6087C134.489 12.6076 131.969 13.6005 130.056 15.3865V0.785331L124.429 1.92493C123.147 2.20983 122.149 2.99331 122.149 4.20414V39.3181H130.056V25.9279C130.063 24.4237 130.403 22.9399 131.053 21.5831C131.383 20.8397 131.923 20.2086 132.606 19.7661C133.289 19.3236 134.085 19.0888 134.899 19.0902C136.679 19.1614 137.32 19.8025 137.819 21.0133C138.234 22.3974 138.403 23.8441 138.318 25.2868Z" fill="#040404"/>
</g>
</svg>
