<svg width="325" height="50" viewBox="0 0 325 50" fill="none" xmlns="http://www.w3.org/2000/svg">
<mask id="mask0_2243_82" style="mask-type:luminance" maskUnits="userSpaceOnUse" x="0" y="0" width="325" height="50">
<path d="M324.771 0H0V50H324.771V0Z" fill="white"/>
</mask>
<g mask="url(#mask0_2243_82)">
<path fill-rule="evenodd" clip-rule="evenodd" d="M299.895 49.725C286.163 49.725 275.032 38.5934 275.032 24.8617H324.759C324.759 38.5934 313.626 49.725 299.895 49.725Z" fill="#040404"/>
<path fill-rule="evenodd" clip-rule="evenodd" d="M76.19 11.4254H53.1064V17.5057H61.3271V39.8003H68.7583V17.5057H76.19V11.4254Z" fill="#040404"/>
<path fill-rule="evenodd" clip-rule="evenodd" d="M78.7803 11.4254V17.5057H86.2117V39.8003H93.643V17.5057H101.864V11.4254H78.7803Z" fill="#040404"/>
<path fill-rule="evenodd" clip-rule="evenodd" d="M158.425 39.8003V11.4254H151.332V28.4048L138.686 11.4254H131.593V39.8003H138.686V23.0259L151.332 39.8003H158.425Z" fill="#040404"/>
<path fill-rule="evenodd" clip-rule="evenodd" d="M105.47 39.8003H112.901H126.451V33.7198H112.901V28.1355H124.386V22.0553H112.901V17.5057H126.451V11.4254H105.47V39.8003Z" fill="#040404"/>
<path fill-rule="evenodd" clip-rule="evenodd" d="M164.077 39.8003H171.509V28.3153H183.505V22.2346H171.509V17.5057H185.734V11.4254H164.077V39.8003Z" fill="#040404"/>
<path fill-rule="evenodd" clip-rule="evenodd" d="M23.411 11.4254L15.3298 31.3744H15.2661L7.18531 11.4254H0L11.6404 39.8003H18.956L30.5963 11.4254H23.411Z" fill="#040404"/>
<path fill-rule="evenodd" clip-rule="evenodd" d="M240.332 39.8003H260.851V33.5011H247.763V11.4254H240.332V39.8003Z" fill="#040404"/>
<path fill-rule="evenodd" clip-rule="evenodd" d="M216.605 39.8003H237.126V33.5011H224.037V11.4254H216.605V39.8003Z" fill="#040404"/>
<path fill-rule="evenodd" clip-rule="evenodd" d="M194.816 28.958L198.699 19.2667H198.748L202.644 28.9571L194.816 28.958ZM207.005 39.8003H214.189L202.362 11.4254H202.269H195.176H195.084L183.256 39.8003H190.441L192.479 34.7332H204.967L207.005 39.8003Z" fill="#040404"/>
<path fill-rule="evenodd" clip-rule="evenodd" d="M37.3629 28.958L41.2454 19.2667H41.2946L45.1913 28.9571L37.3629 28.958ZM49.5519 39.8003H56.7367L44.9088 11.4254H44.8161H37.7234H37.6313L25.8027 39.8003H32.9882L35.0257 34.7332H47.5142L49.5519 39.8003Z" fill="#040404"/>
</g>
</svg>
